<svg width="567" height="52" viewBox="0 0 567 52" fill="none" xmlns="http://www.w3.org/2000/svg">
<path d="M26.8125 41.875V35.75L7.6875 28.375L6.03125 27.8125L7.6875 27.2812L26.8125 19.7812V13.6562L0.3125 25.4688V30.0312L26.8125 41.875ZM67.4062 48V2.5H61.9375V22.0625H43.2812V2.5H37.8438V48H43.2812V26.9688H61.9375V48H67.4062ZM92.25 48.625C95.5417 48.625 98.3021 47.9688 100.531 46.6562C102.781 45.3229 104.469 43.8021 105.594 42.0938L102.062 39.3438C101 40.7188 99.6667 41.8229 98.0625 42.6562C96.4583 43.4896 94.625 43.9062 92.5625 43.9062C91 43.9062 89.5729 43.6146 88.2812 43.0312C86.9896 42.4479 85.8854 41.6458 84.9688 40.625C84.0729 39.6667 83.3646 38.5625 82.8438 37.3125C82.3438 36.0625 82.0208 34.6146 81.875 32.9688V32.75H106.031V30.1562C106.031 27.8021 105.729 25.6146 105.125 23.5938C104.542 21.5729 103.646 19.8125 102.438 18.3125C101.229 16.8333 99.7083 15.6771 97.875 14.8438C96.0625 13.9896 93.9375 13.5625 91.5 13.5625C89.5625 13.5625 87.6667 13.9583 85.8125 14.75C83.9792 15.5417 82.3438 16.6771 80.9062 18.1562C79.4479 19.6562 78.2812 21.4896 77.4062 23.6562C76.5312 25.8021 76.0938 28.2396 76.0938 30.9688V32.2812C76.0938 34.6354 76.4896 36.8125 77.2812 38.8125C78.0729 40.8125 79.1771 42.5417 80.5938 44C82.0104 45.4583 83.7083 46.5938 85.6875 47.4062C87.6875 48.2188 89.875 48.625 92.25 48.625ZM91.5 18.3125C92.9792 18.3125 94.25 18.5833 95.3125 19.125C96.3958 19.6667 97.2917 20.375 98 21.25C98.7083 22.125 99.2604 23.1667 99.6562 24.375C100.052 25.5625 100.25 26.6771 100.25 27.7188V28H82.0625C82.2917 26.4375 82.6875 25.0625 83.25 23.875C83.8333 22.6667 84.5417 21.6458 85.375 20.8125C86.2083 20 87.1458 19.3854 88.1875 18.9688C89.2292 18.5312 90.3333 18.3125 91.5 18.3125ZM116.656 0V5.03125H128.156V43H116.656V48H144.969V43H133.938V0H116.656ZM155.094 0V5.03125H166.594V43H155.094V48H183.406V43H172.375V0H155.094ZM191 30.7812V31.4688C191 33.9062 191.354 36.1667 192.062 38.25C192.771 40.3333 193.792 42.1458 195.125 43.6875C196.438 45.2292 198.042 46.4375 199.938 47.3125C201.854 48.1875 204.01 48.625 206.406 48.625C208.781 48.625 210.917 48.1875 212.812 47.3125C214.708 46.4375 216.323 45.2292 217.656 43.6875C218.969 42.1458 219.979 40.3333 220.688 38.25C221.396 36.1667 221.75 33.9062 221.75 31.4688V30.7812C221.75 28.3438 221.396 26.0833 220.688 24C219.979 21.8958 218.969 20.0729 217.656 18.5312C216.323 16.9896 214.698 15.7812 212.781 14.9062C210.885 14.0104 208.74 13.5625 206.344 13.5625C203.969 13.5625 201.833 14.0104 199.938 14.9062C198.042 15.7812 196.438 16.9896 195.125 18.5312C193.792 20.0729 192.771 21.8958 192.062 24C191.354 26.0833 191 28.3438 191 30.7812ZM196.781 31.4688V30.7812C196.781 29.1354 196.979 27.5625 197.375 26.0625C197.771 24.5417 198.375 23.2083 199.188 22.0625C199.979 20.9167 200.969 20.0104 202.156 19.3438C203.344 18.6562 204.74 18.3125 206.344 18.3125C207.948 18.3125 209.344 18.6562 210.531 19.3438C211.74 20.0104 212.75 20.9167 213.562 22.0625C214.354 23.2083 214.948 24.5417 215.344 26.0625C215.76 27.5625 215.969 29.1354 215.969 30.7812V31.4688C215.969 33.1354 215.771 34.7292 215.375 36.25C214.979 37.75 214.385 39.0729 213.594 40.2188C212.781 41.3646 211.771 42.2708 210.562 42.9375C209.375 43.6042 207.99 43.9375 206.406 43.9375C204.802 43.9375 203.396 43.6042 202.188 42.9375C200.979 42.2708 199.979 41.3646 199.188 40.2188C198.375 39.0729 197.771 37.75 197.375 36.25C196.979 34.7292 196.781 33.1354 196.781 31.4688ZM271.875 48H277.812L283.375 15.6562L283.719 13.7188L284.031 15.625L289.562 48H295.469L301 2.5H295.531L292.25 33.8125L292.062 35.6875L291.719 33.8438L286.188 2.5H281.156L275.656 33.8125L275.312 35.6875L275.125 33.875L271.844 2.5H266.344L271.875 48ZM306.312 30.7812V31.4688C306.312 33.9062 306.667 36.1667 307.375 38.25C308.083 40.3333 309.104 42.1458 310.438 43.6875C311.75 45.2292 313.354 46.4375 315.25 47.3125C317.167 48.1875 319.323 48.625 321.719 48.625C324.094 48.625 326.229 48.1875 328.125 47.3125C330.021 46.4375 331.635 45.2292 332.969 43.6875C334.281 42.1458 335.292 40.3333 336 38.25C336.708 36.1667 337.062 33.9062 337.062 31.4688V30.7812C337.062 28.3438 336.708 26.0833 336 24C335.292 21.8958 334.281 20.0729 332.969 18.5312C331.635 16.9896 330.01 15.7812 328.094 14.9062C326.198 14.0104 324.052 13.5625 321.656 13.5625C319.281 13.5625 317.146 14.0104 315.25 14.9062C313.354 15.7812 311.75 16.9896 310.438 18.5312C309.104 20.0729 308.083 21.8958 307.375 24C306.667 26.0833 306.312 28.3438 306.312 30.7812ZM312.094 31.4688V30.7812C312.094 29.1354 312.292 27.5625 312.688 26.0625C313.083 24.5417 313.688 23.2083 314.5 22.0625C315.292 20.9167 316.281 20.0104 317.469 19.3438C318.656 18.6562 320.052 18.3125 321.656 18.3125C323.26 18.3125 324.656 18.6562 325.844 19.3438C327.052 20.0104 328.062 20.9167 328.875 22.0625C329.667 23.2083 330.26 24.5417 330.656 26.0625C331.073 27.5625 331.281 29.1354 331.281 30.7812V31.4688C331.281 33.1354 331.083 34.7292 330.688 36.25C330.292 37.75 329.698 39.0729 328.906 40.2188C328.094 41.3646 327.083 42.2708 325.875 42.9375C324.688 43.6042 323.302 43.9375 321.719 43.9375C320.115 43.9375 318.708 43.6042 317.5 42.9375C316.292 42.2708 315.292 41.3646 314.5 40.2188C313.688 39.0729 313.083 37.75 312.688 36.25C312.292 34.7292 312.094 33.1354 312.094 31.4688ZM368.531 13.5625C366.073 13.5625 363.875 14.1042 361.938 15.1875C360.021 16.25 358.375 17.7083 357 19.5625L356.969 18.7188L356.719 14.1875H351.219V48H357.031V26.3125C357.406 25.2708 357.875 24.3333 358.438 23.5C359.021 22.6458 359.698 21.9271 360.469 21.3438C361.323 20.6771 362.323 20.1771 363.469 19.8438C364.615 19.4896 365.896 19.3125 367.312 19.3125C368.417 19.3125 369.469 19.375 370.469 19.5C371.49 19.6042 372.562 19.7812 373.688 20.0312L374.469 14.375C373.885 14.125 373.01 13.9271 371.844 13.7812C370.698 13.6354 369.594 13.5625 368.531 13.5625ZM385.719 0V5.03125H397.219V43H385.719V48H414.031V43H403V0H385.719ZM422.156 30.8125V31.4688C422.156 33.8854 422.479 36.1458 423.125 38.25C423.771 40.3333 424.677 42.1458 425.844 43.6875C427.01 45.2292 428.417 46.4375 430.062 47.3125C431.729 48.1875 433.583 48.625 435.625 48.625C437.708 48.625 439.531 48.2708 441.094 47.5625C442.656 46.8542 444 45.8125 445.125 44.4375L445.375 48H450.688V0H444.906V17.5312C443.802 16.2396 442.49 15.2604 440.969 14.5938C439.469 13.9062 437.708 13.5625 435.688 13.5625C433.625 13.5625 431.76 13.9896 430.094 14.8438C428.427 15.6979 427.01 16.8854 425.844 18.4062C424.656 19.9271 423.74 21.75 423.094 23.875C422.469 25.9792 422.156 28.2917 422.156 30.8125ZM427.938 31.4688V30.8125C427.938 29.1667 428.115 27.6042 428.469 26.125C428.823 24.625 429.375 23.3021 430.125 22.1562C430.854 21.0312 431.792 20.1354 432.938 19.4688C434.104 18.8021 435.5 18.4688 437.125 18.4688C439.021 18.4688 440.604 18.9167 441.875 19.8125C443.146 20.6875 444.156 21.8125 444.906 23.1875V38.875C444.156 40.3542 443.146 41.5312 441.875 42.4062C440.604 43.2812 439 43.7188 437.062 43.7188C435.458 43.7188 434.083 43.3958 432.938 42.75C431.792 42.0833 430.854 41.1875 430.125 40.0625C429.375 38.9375 428.823 37.6354 428.469 36.1562C428.115 34.6771 427.938 33.1146 427.938 31.4688ZM477.812 33.2812V2.5H472V33.2812H477.812ZM471.438 44.9688C471.438 45.9271 471.729 46.7292 472.312 47.375C472.917 48.0208 473.812 48.3438 475 48.3438C476.188 48.3438 477.083 48.0208 477.688 47.375C478.312 46.7292 478.625 45.9271 478.625 44.9688C478.625 43.9688 478.312 43.1354 477.688 42.4688C477.083 41.8021 476.188 41.4688 475 41.4688C473.812 41.4688 472.917 41.8021 472.312 42.4688C471.729 43.1354 471.438 43.9688 471.438 44.9688ZM507.75 51.9062L526.719 2.5H521.562L502.562 51.9062H507.75ZM538.688 41.8438L566.281 30V25.4375L538.688 13.625V19.5938L558.906 27.0938L560.781 27.6875L558.906 28.2188L538.688 35.8438V41.8438Z" fill="#aaa"/>
</svg>
