<!-- <svg width="142" height="112" viewBox="0 0 142 112" fill="none" xmlns="http://www.w3.org/2000/svg">
<path d="M14.55 109.9C14.3 110.5 13.925 111 13.425 111.4C12.925 111.8 12.25 112 11.4 112H3.3C1.6 112 0.75 111.45 0.75 110.35C0.75 109.85 0.8 109.4 0.9 109C0.95 108.8 1 108.65 1.05 108.55L45 2.94999L44.85 3.1C44.95 2.99999 45 2.89999 45 2.79999C45 2.69999 45.05 2.6 45.15 2.5C45.4 2.1 45.675 1.7 45.975 1.29999C46.275 0.899994 47 0.699993 48.15 0.699993H53.1C54.25 0.699993 54.975 0.924995 55.275 1.375C55.625 1.77499 55.925 2.17499 56.175 2.57499L56.25 2.79999L71.1 38.875L86.1 2.94999L85.95 3.1C86.15 2.89999 86.25 2.69999 86.25 2.5C86.5 2.1 86.775 1.7 87.075 1.29999C87.375 0.899994 88.1 0.699993 89.25 0.699993H94.35C95.5 0.699993 96.25 0.924995 96.6 1.375C96.95 1.825 97.2 2.24999 97.35 2.65V2.19999L97.5 2.79999L141.15 108.55L141.3 109.3C141.4 109.8 141.45 110.15 141.45 110.35C141.45 111.45 140.55 112 138.75 112H130.8C129.95 112 129.25 111.8 128.7 111.4C128.2 111 127.8 110.45 127.5 109.75V109.9C126.75 107.95 125.75 105.375 124.5 102.175C123.25 98.925 121.8 95.275 120.15 91.225C118.55 87.125 116.825 82.775 114.975 78.175C113.125 73.525 111.25 68.85 109.35 64.15C107.45 59.45 105.575 54.825 103.725 50.275C101.925 45.725 100.25 41.525 98.7 37.675C97.15 33.825 95.775 30.425 94.575 27.475C93.375 24.475 92.45 22.2 91.8 20.65L77.775 54.925L99.9 108.55L100.05 109.3C100.15 109.8 100.2 110.15 100.2 110.35C100.2 111.45 99.35 112 97.65 112H44.55C42.85 112 42 111.45 42 110.35C42 109.65 42.025 109.2 42.075 109C42.075 108.8 42.1 108.65 42.15 108.55L64.5 54.85C62.95 51.05 61.45 47.375 60 43.825C58.6 40.225 57.275 36.925 56.025 33.925C54.825 30.925 53.75 28.3 52.8 26.05C51.9 23.75 51.2 21.95 50.7 20.65C50.05 22.2 49.1 24.475 47.85 27.475C46.65 30.425 45.25 33.825 43.65 37.675C42.05 41.525 40.325 45.725 38.475 50.275C36.625 54.825 34.75 59.45 32.85 64.15C30.95 68.85 29.05 73.525 27.15 78.175C25.3 82.775 23.55 87.125 21.9 91.225C20.3 95.275 18.85 98.925 17.55 102.175C16.3 105.375 15.3 107.95 14.55 109.9ZM71.1 71.35C68.8 77.05 66.6 82.5 64.5 87.7C62.45 92.85 60.65 97.4 59.1 101.35H83.1L71.1 71.35ZM56.25 2.65C56.2 2.65 56.175 2.62499 56.175 2.57499L56.1 2.19999L56.25 2.65Z" fill="white"/>
</svg> -->


<!-- <svg width="142" height="112" viewBox="0 0 142 112" fill="none" xmlns="http://www.w3.org/2000/svg">
<path d="M14.55 109.9C14.3 110.5 13.925 111 13.425 111.4C12.925 111.8 12.25 112 11.4 112H3.3C1.6 112 0.75 111.45 0.75 110.35C0.75 109.85 0.8 109.4 0.9 109C0.95 108.8 1 108.65 1.05 108.55L45 2.94999L44.85 3.1C44.95 2.99999 45 2.89999 45 2.79999C45 2.69999 45.05 2.6 45.15 2.5C45.4 2.1 45.675 1.7 45.975 1.29999C46.275 0.899994 47 0.699993 48.15 0.699993H53.1C54.25 0.699993 54.975 0.924995 55.275 1.375C55.625 1.77499 55.925 2.17499 56.175 2.57499L56.25 2.79999L71.1 38.875L86.1 2.94999L85.95 3.1C86.15 2.89999 86.25 2.69999 86.25 2.5C86.5 2.1 86.775 1.7 87.075 1.29999C87.375 0.899994 88.1 0.699993 89.25 0.699993H94.35C95.5 0.699993 96.25 0.924995 96.6 1.375C96.95 1.825 97.2 2.24999 97.35 2.65V2.19999L97.5 2.79999L141.15 108.55L141.3 109.3C141.4 109.8 141.45 110.15 141.45 110.35C141.45 111.45 140.55 112 138.75 112H130.8C129.95 112 129.25 111.8 128.7 111.4C128.2 111 127.8 110.45 127.5 109.75V109.9C126.75 107.95 125.75 105.375 124.5 102.175C123.25 98.925 121.8 95.275 120.15 91.225C118.55 87.125 116.825 82.775 114.975 78.175C113.125 73.525 111.25 68.85 109.35 64.15C107.45 59.45 105.575 54.825 103.725 50.275C101.925 45.725 100.25 41.525 98.7 37.675C97.15 33.825 95.775 30.425 94.575 27.475C93.375 24.475 92.45 22.2 91.8 20.65L77.775 54.925L99.9 108.55L100.05 109.3C100.15 109.8 100.2 110.15 100.2 110.35C100.2 111.45 99.35 112 97.65 112H44.55C42.85 112 42 111.45 42 110.35C42 109.65 42.025 109.2 42.075 109C42.075 108.8 42.1 108.65 42.15 108.55L64.5 54.85C62.95 51.05 61.45 47.375 60 43.825C58.6 40.225 57.275 36.925 56.025 33.925C54.825 30.925 53.75 28.3 52.8 26.05C51.9 23.75 51.2 21.95 50.7 20.65C50.05 22.2 49.1 24.475 47.85 27.475C46.65 30.425 45.25 33.825 43.65 37.675C42.05 41.525 40.325 45.725 38.475 50.275C36.625 54.825 34.75 59.45 32.85 64.15C30.95 68.85 29.05 73.525 27.15 78.175C25.3 82.775 23.55 87.125 21.9 91.225C20.3 95.275 18.85 98.925 17.55 102.175C16.3 105.375 15.3 107.95 14.55 109.9ZM71.1 71.35C68.8 77.05 66.6 82.5 64.5 87.7C62.45 92.85 60.65 97.4 59.1 101.35H83.1L71.1 71.35ZM56.25 2.65C56.2 2.65 56.175 2.62499 56.175 2.57499L56.1 2.19999L56.25 2.65Z" fill="url(#paint0_linear)"/>
<defs>
<linearGradient id="paint0_linear" x1="-39" y1="68" x2="186" y2="69" gradientUnits="userSpaceOnUse">
<stop stop-color="white"/>
<stop offset="1" stop-color="#111111"/>
</linearGradient>
</defs>
</svg> -->




<svg width="142" height="112" viewBox="0 0 142 112" fill="none" xmlns="http://www.w3.org/2000/svg">
<path d="M14.55 109.9C14.3 110.5 13.925 111 13.425 111.4C12.925 111.8 12.25 112 11.4 112H3.3C1.6 112 0.75 111.45 0.75 110.35C0.75 109.85 0.8 109.4 0.9 109C0.95 108.8 1 108.65 1.05 108.55L45 2.94999L44.85 3.1C44.95 2.99999 45 2.89999 45 2.79999C45 2.69999 45.05 2.6 45.15 2.5C45.4 2.1 45.675 1.7 45.975 1.29999C46.275 0.899994 47 0.699993 48.15 0.699993H53.1C54.25 0.699993 54.975 0.924995 55.275 1.375C55.625 1.77499 55.925 2.17499 56.175 2.57499L56.25 2.79999L71.1 38.875L86.1 2.94999L85.95 3.1C86.15 2.89999 86.25 2.69999 86.25 2.5C86.5 2.1 86.775 1.7 87.075 1.29999C87.375 0.899994 88.1 0.699993 89.25 0.699993H94.35C95.5 0.699993 96.25 0.924995 96.6 1.375C96.95 1.825 97.2 2.24999 97.35 2.65V2.19999L97.5 2.79999L141.15 108.55L141.3 109.3C141.4 109.8 141.45 110.15 141.45 110.35C141.45 111.45 140.55 112 138.75 112H130.8C129.95 112 129.25 111.8 128.7 111.4C128.2 111 127.8 110.45 127.5 109.75V109.9C126.75 107.95 125.75 105.375 124.5 102.175C123.25 98.925 121.8 95.275 120.15 91.225C118.55 87.125 116.825 82.775 114.975 78.175C113.125 73.525 111.25 68.85 109.35 64.15C107.45 59.45 105.575 54.825 103.725 50.275C101.925 45.725 100.25 41.525 98.7 37.675C97.15 33.825 95.775 30.425 94.575 27.475C93.375 24.475 92.45 22.2 91.8 20.65L77.775 54.925L99.9 108.55L100.05 109.3C100.15 109.8 100.2 110.15 100.2 110.35C100.2 111.45 99.35 112 97.65 112H44.55C42.85 112 42 111.45 42 110.35C42 109.65 42.025 109.2 42.075 109C42.075 108.8 42.1 108.65 42.15 108.55L64.5 54.85C62.95 51.05 61.45 47.375 60 43.825C58.6 40.225 57.275 36.925 56.025 33.925C54.825 30.925 53.75 28.3 52.8 26.05C51.9 23.75 51.2 21.95 50.7 20.65C50.05 22.2 49.1 24.475 47.85 27.475C46.65 30.425 45.25 33.825 43.65 37.675C42.05 41.525 40.325 45.725 38.475 50.275C36.625 54.825 34.75 59.45 32.85 64.15C30.95 68.85 29.05 73.525 27.15 78.175C25.3 82.775 23.55 87.125 21.9 91.225C20.3 95.275 18.85 98.925 17.55 102.175C16.3 105.375 15.3 107.95 14.55 109.9ZM71.1 71.35C68.8 77.05 66.6 82.5 64.5 87.7C62.45 92.85 60.65 97.4 59.1 101.35H83.1L71.1 71.35ZM56.25 2.65C56.2 2.65 56.175 2.62499 56.175 2.57499L56.1 2.19999L56.25 2.65Z" fill="url(#paint0_linear)"/>
<defs>
<linearGradient id="paint0_linear" x1="-39" y1="68" x2="186" y2="69" gradientUnits="userSpaceOnUse">
<stop stop-color="#EB04FF"/>
<stop offset="1" stop-color="#FF4F00"/>
</linearGradient>
</defs>
</svg>
